<svg id="Layer_1" data-name="Layer 1" xmlns="http://www.w3.org/2000/svg" viewBox="0 0 3445.24 3435.75"><path d="M7601.06,8917.58c-240,0-480.09-.32-720.14.29-42.6.11-72.35-16.9-90.33-55.25-5-10.58-10.42-20.92-15.64-31.38C6672.84,8627,6570.24,8423,6468.89,8218.45c-35.74-72.16-91.9-106.75-172.17-106.55-237.35.61-474.7.2-712.05.18-9,0-18,.38-27-.23-59.23-4.09-95.71-61.66-74-116.77,2.95-7.51,6.79-14.68,10.41-21.91q607.13-1214.54,1214.3-2429c4-8,7.82-16.28,12.73-23.75,32.71-49.8,105.3-51.3,139.6-2.75,6.7,9.48,12,20,17.23,30.46q176.51,353.46,353.15,706.83c12,23.85,25.91,47.84,43.74,67.38,33.93,37.19,79,51.18,129,51.09q171.27-.3,342.54-.05c126.76,0,253.53.63,380.29-.34,43.67-.34,72.74,17.3,92.26,56.43Q8561.42,7116,8904.84,7802.09c3.62,7.23,7.46,14.39,10.63,21.82,22.3,52.15-9.73,109.38-66,117.5-10.61,1.53-21.51,1.46-32.28,1.46q-383,.1-766,0c-2.7,0-5.4-.07-8.09,0-43.21,1-72.87-18.08-92.15-57.24-58-117.75-117.15-234.9-175.84-352.29q-237-474-474-948c-1.61-3.22-3.18-6.45-4.86-9.63-16.36-31.1-41.1-49.89-77.17-49.79-37.06.1-62.18,18.93-78.49,51.74Q7057.2,6745.55,6973.06,6913q-242.58,484.73-485.17,969.47c-5.23,10.43-10.8,20.84-14.64,31.81-18.73,53.48,18,108.54,74.61,112.08,13.44.84,27,.37,40.45.37h1354l21.57,0c38.84,0,67,17.23,84.36,52.07q43.95,88.08,88.08,176.07,129,258.09,258,516.2c5.21,10.45,10.82,20.82,14.75,31.77,20.14,56.06-17.57,111.88-77.1,114.53-9,.4-18,.15-27,.15Z" transform="translate(-5477.38 -5482.13)" style="fill:#fff"/></svg>