<?xml version="1.0" encoding="UTF-8" standalone="no"?>
<!DOCTYPE svg PUBLIC "-//W3C//DTD SVG 1.1//EN" "http://www.w3.org/Graphics/SVG/1.1/DTD/svg11.dtd">
<svg width="100%" height="100%" viewBox="0 0 1024 1024" version="1.1" xmlns="http://www.w3.org/2000/svg" xmlns:xlink="http://www.w3.org/1999/xlink" xml:space="preserve" xmlns:serif="http://www.serif.com/" style="fill-rule:evenodd;clip-rule:evenodd;stroke-linecap:round;stroke-linejoin:round;stroke-miterlimit:1.5;">
    <g transform="matrix(2.86835,0,0,3.73723,0,0)">
        <g transform="matrix(1.12381,0,0,0.862528,-38.5349,13.8335)">
            <path d="M308.295,61.435L308.295,192.478C308.295,202.524 300.139,210.679 290.094,210.679L63.968,210.679C53.923,210.679 45.768,202.524 45.768,192.478L45.768,61.435C45.768,51.39 53.923,43.235 63.968,43.235L290.094,43.235C300.139,43.235 308.295,51.39 308.295,61.435Z" style="fill:rgb(164,164,164);stroke:rgb(17,0,0);stroke-width:6.99px;"/>
        </g>
        <g transform="matrix(1.79211,0,0,1.00223,-132.76,6.74877)">
            <path d="M90.099,46.205C126.49,81.13 126.085,80.736 163.592,115.155" style="fill:none;stroke:black;stroke-width:5.73px;"/>
        </g>
        <g transform="matrix(1.3004,0,0,0.991734,-52.4991,7.98168)">
            <path d="M267.487,45.451C215.168,79.733 215.756,79.353 163.729,115.131" style="fill:none;stroke:black;stroke-width:6.94px;"/>
        </g>
        <g transform="matrix(1.12381,0,0,0.862528,-38.5349,13.8335)">
            <path d="M340.482,182.271L340.482,222.33C340.482,233.384 331.507,242.359 320.453,242.359L273.735,242.359C262.68,242.359 253.706,233.384 253.706,222.33L253.706,182.271C253.706,171.216 262.68,162.241 273.735,162.241L320.453,162.241C331.507,162.241 340.482,171.216 340.482,182.271Z" style="fill:rgb(87,87,87);stroke:black;stroke-width:1.7px;"/>
        </g>
        <g transform="matrix(1.12381,0,0,0.862528,-38.5349,13.8335)">
            <path d="M296.078,169.542C290.601,169.943 284.927,171.914 280.351,174.995C278.23,176.428 277.712,176.859 275.652,178.97C269.993,184.792 266.835,191.617 266.225,199.319C266.042,201.737 266.21,205.912 266.545,207.252C266.622,207.545 266.789,208.315 266.942,208.947C267.735,212.505 269.505,216.541 271.701,219.853C274.386,223.873 276.384,225.876 280.595,228.741C284.073,231.098 288.756,232.993 293.103,233.763C294.674,234.056 301.31,234.04 302.866,233.763C307.32,232.962 310.646,231.776 314.154,229.758C316.839,228.217 318.502,226.923 320.866,224.52C322.59,222.78 323.032,222.225 324.603,219.914C327.227,216.017 328.859,211.858 329.744,206.867C330.171,204.387 330.202,199.519 329.805,197.008C329.469,194.929 328.402,191.124 327.73,189.614C327.654,189.445 327.334,188.751 327.044,188.074C324.71,182.805 320.088,177.491 315.252,174.518C312.507,172.839 310.173,171.729 307.747,170.944C305.978,170.374 302.485,169.696 300.807,169.588C299.968,169.542 298.976,169.48 298.595,169.45C298.213,169.419 297.085,169.465 296.078,169.542ZM301.34,173.67C304.574,174.133 307.503,174.995 310.112,176.274C313.132,177.768 315.435,179.432 317.907,181.912C319.646,183.668 320.317,184.469 321.43,186.163C323.047,188.613 324.039,190.6 324.771,192.911C325.976,196.654 326.281,198.81 326.159,202.769C326.083,205.373 326.022,205.943 325.488,208.176C325.198,209.424 324.436,211.92 324.115,212.644C323.642,213.753 322.651,215.663 322.452,215.894C322.33,216.017 322.239,216.217 322.239,216.31C322.239,216.418 322.178,216.495 322.086,216.495C322.01,216.495 321.934,216.572 321.934,216.664C321.934,217.095 319.691,219.976 318.059,221.655C316.244,223.504 315.771,223.904 313.285,225.63C310.157,227.802 305.596,229.434 301.463,229.866L300.273,229.989L300.273,223.273L303.018,223.273C305.871,223.273 306.146,223.226 306.725,222.579C307.107,222.179 307.29,221.671 307.29,221.07C307.29,220.392 307,219.884 306.39,219.468C305.902,219.129 305.734,219.113 303.079,219.113L300.273,219.113L300.273,216.495C300.273,215.047 300.303,213.876 300.334,213.876C300.364,213.876 300.913,214.045 301.554,214.261C305.002,215.401 309.166,214.97 312.476,213.137C314.871,211.812 315.908,211.011 317.617,209.162C319.6,207.036 320.027,206.497 320.439,205.588C320.79,204.803 320.698,204.11 320.21,203.786C319.554,203.37 316.915,202.846 314.398,202.631C313.407,202.538 312.537,202.446 312.476,202.4C312.415,202.369 312.598,201.629 312.873,200.782C313.605,198.549 313.849,196.916 313.849,194.235C313.849,192.202 313.544,188.582 313.315,187.858C313.269,187.719 313.102,186.656 312.949,185.501C312.568,182.774 312.324,182.297 311.317,182.297C310.508,182.297 307.061,183.945 305.337,185.162C304.803,185.532 304.33,185.84 304.269,185.84C304.208,185.84 303.995,185.439 303.796,184.946C302.927,182.882 300.471,178.985 299.251,177.753C298.335,176.828 297.405,177.044 296.459,178.415C296.185,178.815 295.864,179.216 295.773,179.293C295.208,179.755 292.34,184.808 292.34,185.332C292.34,185.393 292.279,185.547 292.203,185.67C292.081,185.855 291.837,185.747 290.907,185.085C289.015,183.776 285.827,182.297 284.881,182.297C284.286,182.297 283.829,182.867 283.645,183.853C283.417,185.023 282.745,189.491 282.562,191.154C282.471,191.909 282.425,193.65 282.471,195.006C282.547,197.64 282.852,199.319 283.584,201.291C283.813,201.876 283.951,202.369 283.92,202.4C283.89,202.446 283.005,202.538 281.952,202.631C280.076,202.8 277.62,203.231 276.522,203.601C275.851,203.817 275.484,204.418 275.637,205.095C275.805,205.866 277.178,207.637 279.115,209.609C280.945,211.473 281.098,211.581 284.103,213.306C287.139,215.062 291.562,215.355 295.285,214.045L296.154,213.737L296.154,219.113L293.332,219.113C290.22,219.113 289.884,219.19 289.305,220.022C289.091,220.33 288.984,220.716 288.984,221.208C288.984,221.871 289.046,221.994 289.671,222.61L290.357,223.273L296.154,223.273L296.154,230.066L295.666,229.989C295.391,229.943 294.827,229.866 294.4,229.82C291.99,229.542 288.008,228.325 285.69,227.17C282.898,225.753 279.984,223.519 277.635,220.977C277.284,220.608 276.873,220.161 276.705,219.976C276.003,219.221 273.639,215.586 272.937,214.169C271.778,211.796 270.893,208.916 270.435,205.943C270.1,203.894 270.069,200.12 270.359,198.009C270.542,196.685 271.335,193.219 271.534,192.911C271.579,192.834 271.808,192.202 272.067,191.509C272.754,189.599 273.73,187.873 275.957,184.685C276.247,184.253 277.391,182.99 278.505,181.866C280.64,179.678 282.822,178.061 285.629,176.566C288.176,175.211 291.425,174.21 295.239,173.624C296.017,173.501 300.379,173.532 301.34,173.67ZM298.549,183.19C299.068,183.899 299.983,185.825 300.532,187.38C301.829,191.016 302.408,195.052 302.103,198.317C301.768,201.999 300.425,206.081 299.052,207.637C298.824,207.884 298.534,208.253 298.412,208.454C298.183,208.808 298.183,208.792 297.405,207.853C296.535,206.775 296.551,206.79 295.635,204.602C295.208,203.586 294.796,202.246 294.552,201.059C293.851,197.593 294.064,192.772 295.101,189.306C295.269,188.705 295.452,188.089 295.498,187.92C295.544,187.75 295.651,187.534 295.712,187.442C295.788,187.35 295.986,186.872 296.154,186.394C296.612,185.039 297.863,182.759 298.137,182.759C298.183,182.759 298.381,182.959 298.549,183.19ZM309.593,189.537C310.218,193.311 310.035,197.671 309.166,199.704C308.144,202.092 307.885,202.523 306.802,203.617C305.612,204.818 304.544,205.681 304.544,205.45C304.544,205.373 304.712,204.803 304.91,204.202C306.054,200.813 306.344,196.207 305.688,191.94L305.413,190.092L305.932,189.66C307.015,188.721 309.074,187.334 309.227,187.442C309.227,187.442 309.395,188.397 309.593,189.537ZM288.649,188.366C289.305,188.828 290.068,189.414 290.357,189.66L290.876,190.107L290.617,191.709C290.022,195.437 290.144,199.473 290.983,202.939C291.242,204.002 291.517,204.926 291.593,205.018C291.837,205.28 291.73,205.419 291.41,205.249C290.907,204.972 290.357,204.479 289.29,203.386C288.329,202.384 288.176,202.107 287.062,199.473C286.162,197.347 286.117,192.202 286.94,187.95C286.986,187.719 287.123,187.534 287.261,187.534C287.383,187.534 288.008,187.904 288.649,188.366ZM287.368,207.16C287.718,207.452 288.237,207.914 288.527,208.176C289.229,208.808 290.449,209.624 291.41,210.117C291.837,210.333 292.157,210.564 292.112,210.656C292.051,210.733 291.364,210.795 290.571,210.795C288.954,210.795 287.413,210.441 285.888,209.732C284.927,209.285 282.791,207.76 282.135,207.036L281.769,206.636L286.742,206.636L287.368,207.16ZM313.91,207.221C312.003,208.977 310.569,209.809 308.357,210.425C307.457,210.687 306.679,210.795 305.841,210.78C303.918,210.764 303.888,210.672 305.459,209.748C306.634,209.054 309.09,207.113 309.242,206.759C309.273,206.682 310.478,206.636 311.912,206.636L314.535,206.651L313.91,207.221Z" style="fill:white;fill-rule:nonzero;"/>
        </g>
        <g transform="matrix(1.12381,0,0,0.862528,-38.5349,13.8335)">
            <path d="M277.01,196.145C276.842,196.222 276.598,196.407 276.461,196.561C275.347,197.84 276.156,199.796 277.757,199.766C279.573,199.735 280.351,197.855 279.1,196.577C278.612,196.099 277.605,195.884 277.01,196.145Z" style="fill:white;fill-rule:nonzero;"/>
        </g>
        <g transform="matrix(1.12381,0,0,0.862528,-38.5349,13.8335)">
            <path d="M317.724,196.145C317.556,196.222 317.22,196.5 317.007,196.777C315.817,198.194 317.266,200.228 319.066,199.673C319.966,199.396 320.317,198.918 320.317,197.917C320.317,197.193 320.256,197.024 319.844,196.608C319.341,196.099 318.349,195.884 317.724,196.145Z" style="fill:white;fill-rule:nonzero;"/>
        </g>
    </g>
</svg>
