<?xml version="1.0" encoding="UTF-8" standalone="no"?>
<!DOCTYPE svg PUBLIC "-//W3C//DTD SVG 1.1//EN" "http://www.w3.org/Graphics/SVG/1.1/DTD/svg11.dtd">
<svg width="100%" height="100%" viewBox="0 0 1024 1024" version="1.1" xmlns="http://www.w3.org/2000/svg" xmlns:xlink="http://www.w3.org/1999/xlink" xml:space="preserve" xmlns:serif="http://www.serif.com/" style="fill-rule:evenodd;clip-rule:evenodd;stroke-linecap:round;stroke-linejoin:round;stroke-miterlimit:1.5;">
    <g transform="matrix(1.6732,0,0,1.01587,0,0)">
        <g transform="matrix(2.00156,0,0,3.29668,-344.756,-1142.83)">
            <path d="M440.295,424.555L440.295,555.598C440.295,565.644 432.139,573.799 422.094,573.799L195.968,573.799C185.923,573.799 177.768,565.644 177.768,555.598L177.768,424.555C177.768,414.51 185.923,406.355 195.968,406.355L422.094,406.355C432.139,406.355 440.295,414.51 440.295,424.555Z" style="fill:rgb(196,124,255);stroke:rgb(17,0,0);stroke-width:6.99px;"/>
        </g>
        <g transform="matrix(3.19183,0,0,3.83065,-669.692,-1363.8)">
            <path d="M222.099,409.325C258.49,444.25 258.085,443.856 295.592,478.275" style="fill:none;stroke:black;stroke-width:6.36px;"/>
        </g>
        <g transform="matrix(2.31608,0,0,3.79052,-411.144,-1344.52)">
            <path d="M399.487,408.571C347.168,442.853 347.756,442.473 295.729,478.251" style="fill:none;stroke:black;stroke-width:7.7px;"/>
        </g>
        <g transform="matrix(2.00156,0,0,3.29668,-344.756,-1142.83)">
            <path d="M472.482,545.391L472.482,585.45C472.482,596.504 463.507,605.479 452.453,605.479L405.735,605.479C394.68,605.479 385.706,596.504 385.706,585.45L385.706,545.391C385.706,534.336 394.68,525.361 405.735,525.361L452.453,525.361C463.507,525.361 472.482,534.336 472.482,545.391Z" style="fill:white;stroke:black;stroke-width:1.7px;"/>
        </g>
        <g transform="matrix(2.00156,0,0,3.29668,-344.756,-1142.83)">
            <path d="M428.03,533.197C422.564,533.593 416.901,535.542 412.333,538.587C410.217,540.003 409.699,540.429 407.644,542.515C401.995,548.27 398.844,555.014 398.235,562.627C398.052,565.017 398.22,569.143 398.554,570.468C398.631,570.757 398.798,571.518 398.95,572.142C399.742,575.659 401.508,579.648 403.701,582.922C406.38,586.895 408.375,588.875 412.577,591.707C416.048,594.036 420.722,595.909 425.061,596.67C426.629,596.959 433.252,596.944 434.805,596.67C439.251,595.878 442.57,594.706 446.072,592.711C448.751,591.189 450.411,589.91 452.77,587.535C454.491,585.814 454.932,585.266 456.501,582.983C459.119,579.131 460.748,575.02 461.631,570.087C462.058,567.636 462.088,562.825 461.692,560.343C461.357,558.288 460.292,554.527 459.622,553.035C459.546,552.868 459.226,552.183 458.937,551.513C456.607,546.306 451.994,541.053 447.168,538.115C444.427,536.455 442.098,535.359 439.677,534.583C437.911,534.019 434.424,533.349 432.75,533.243C431.912,533.197 430.923,533.136 430.542,533.106C430.161,533.075 429.035,533.121 428.03,533.197ZM433.283,537.277C436.51,537.734 439.433,538.587 442.037,539.85C445.051,541.327 447.35,542.971 449.817,545.423C451.552,547.158 452.222,547.95 453.334,549.625C454.948,552.046 455.937,554.01 456.668,556.293C457.871,559.993 458.175,562.124 458.054,566.037C457.977,568.61 457.917,569.174 457.384,571.381C457.094,572.614 456.333,575.081 456.013,575.796C455.541,576.893 454.552,578.781 454.354,579.009C454.232,579.131 454.141,579.329 454.141,579.42C454.141,579.527 454.08,579.603 453.988,579.603C453.912,579.603 453.836,579.679 453.836,579.77C453.836,580.196 451.598,583.044 449.969,584.703C448.157,586.53 447.685,586.926 445.204,588.631C442.083,590.778 437.53,592.392 433.404,592.818L432.217,592.94L432.217,586.302L434.957,586.302C437.804,586.302 438.078,586.256 438.657,585.617C439.038,585.221 439.22,584.718 439.22,584.125C439.22,583.455 438.931,582.952 438.322,582.541C437.835,582.206 437.667,582.191 435.018,582.191L432.217,582.191L432.217,579.603C432.217,578.172 432.247,577.014 432.278,577.014C432.308,577.014 432.856,577.182 433.496,577.395C436.937,578.522 441.093,578.095 444.397,576.284C446.787,574.974 447.822,574.183 449.528,572.356C451.507,570.255 451.933,569.722 452.344,568.823C452.694,568.047 452.603,567.362 452.116,567.042C451.461,566.631 448.827,566.113 446.315,565.9C445.325,565.809 444.458,565.718 444.397,565.672C444.336,565.641 444.519,564.911 444.793,564.073C445.523,561.866 445.767,560.252 445.767,557.603C445.767,555.593 445.463,552.015 445.234,551.3C445.188,551.163 445.021,550.112 444.869,548.97C444.488,546.275 444.245,545.803 443.24,545.803C442.433,545.803 438.992,547.432 437.272,548.635C436.739,549.001 436.267,549.305 436.206,549.305C436.145,549.305 435.932,548.909 435.734,548.422C434.866,546.382 432.415,542.53 431.197,541.312C430.283,540.398 429.355,540.612 428.411,541.967C428.137,542.362 427.817,542.758 427.725,542.834C427.162,543.291 424.3,548.285 424.3,548.803C424.3,548.864 424.239,549.016 424.163,549.138C424.041,549.32 423.797,549.214 422.869,548.559C420.981,547.265 417.799,545.803 416.855,545.803C416.261,545.803 415.804,546.367 415.622,547.341C415.393,548.498 414.723,552.913 414.541,554.558C414.449,555.304 414.404,557.024 414.449,558.364C414.525,560.967 414.83,562.627 415.561,564.576C415.789,565.154 415.926,565.641 415.896,565.672C415.865,565.718 414.982,565.809 413.932,565.9C412.059,566.068 409.608,566.494 408.512,566.859C407.842,567.073 407.476,567.666 407.629,568.336C407.796,569.097 409.166,570.848 411.1,572.797C412.927,574.639 413.079,574.746 416.078,576.451C419.108,578.187 423.523,578.476 427.238,577.182L428.106,576.877L428.106,582.191L425.289,582.191C422.184,582.191 421.849,582.267 421.27,583.089C421.057,583.394 420.95,583.774 420.95,584.262C420.95,584.916 421.011,585.038 421.635,585.647L422.321,586.302L428.106,586.302L428.106,593.016L427.619,592.94C427.345,592.894 426.782,592.818 426.355,592.772C423.95,592.498 419.976,591.295 417.662,590.154C414.876,588.753 411.968,586.545 409.623,584.033C409.273,583.668 408.862,583.226 408.694,583.044C407.994,582.298 405.634,578.704 404.934,577.304C403.777,574.959 402.894,572.112 402.437,569.174C402.102,567.149 402.071,563.419 402.361,561.333C402.543,560.023 403.335,556.598 403.533,556.293C403.579,556.217 403.807,555.593 404.066,554.908C404.751,553.02 405.725,551.315 407.948,548.163C408.238,547.737 409.379,546.488 410.491,545.377C412.622,543.215 414.799,541.616 417.601,540.14C420.143,538.8 423.386,537.81 427.193,537.232C427.969,537.11 432.323,537.14 433.283,537.277ZM430.496,546.686C431.014,547.387 431.928,549.29 432.476,550.828C433.77,554.421 434.348,558.41 434.044,561.637C433.709,565.276 432.369,569.311 430.999,570.848C430.77,571.092 430.481,571.457 430.359,571.655C430.131,572.005 430.131,571.99 429.355,571.062C428.487,569.996 428.502,570.011 427.588,567.849C427.162,566.844 426.751,565.52 426.507,564.347C425.807,560.922 426.02,556.156 427.056,552.731C427.223,552.137 427.406,551.528 427.451,551.36C427.497,551.193 427.604,550.98 427.665,550.888C427.741,550.797 427.939,550.325 428.106,549.853C428.563,548.513 429.811,546.26 430.085,546.26C430.131,546.26 430.329,546.458 430.496,546.686ZM441.519,552.959C442.143,556.689 441.961,560.998 441.093,563.008C440.073,565.367 439.814,565.794 438.733,566.875C437.546,568.062 436.48,568.915 436.48,568.686C436.48,568.61 436.647,568.047 436.845,567.453C437.987,564.104 438.276,559.551 437.622,555.334L437.348,553.507L437.865,553.081C438.946,552.152 441.002,550.782 441.154,550.888C441.154,550.888 441.321,551.832 441.519,552.959ZM420.615,551.802C421.27,552.259 422.031,552.837 422.321,553.081L422.838,553.522L422.579,555.106C421.986,558.79 422.107,562.779 422.945,566.205C423.204,567.255 423.478,568.169 423.554,568.26C423.797,568.519 423.691,568.656 423.371,568.488C422.869,568.214 422.321,567.727 421.255,566.646C420.296,565.657 420.143,565.383 419.032,562.779C418.134,560.678 418.088,555.593 418.91,551.391C418.956,551.163 419.093,550.98 419.23,550.98C419.352,550.98 419.976,551.345 420.615,551.802ZM419.337,570.376C419.687,570.666 420.204,571.122 420.494,571.381C421.194,572.005 422.412,572.812 423.371,573.3C423.797,573.513 424.117,573.741 424.071,573.832C424.011,573.909 423.325,573.969 422.534,573.969C420.92,573.969 419.382,573.619 417.86,572.919C416.901,572.477 414.769,570.97 414.114,570.255L413.749,569.859L418.712,569.859L419.337,570.376ZM445.828,570.437C443.925,572.173 442.494,572.995 440.286,573.604C439.388,573.863 438.611,573.969 437.774,573.954C435.856,573.939 435.825,573.848 437.393,572.934C438.566,572.249 441.017,570.331 441.169,569.981C441.2,569.904 442.402,569.859 443.833,569.859L446.452,569.874L445.828,570.437Z" style="fill-rule:nonzero;"/>
        </g>
        <g transform="matrix(2.00156,0,0,3.29668,-344.756,-1142.83)">
            <path d="M408.999,559.491C408.831,559.567 408.588,559.749 408.451,559.902C407.339,561.165 408.146,563.099 409.745,563.068C411.557,563.038 412.333,561.181 411.085,559.917C410.597,559.445 409.593,559.232 408.999,559.491Z" style="fill-rule:nonzero;"/>
        </g>
        <g transform="matrix(2.00156,0,0,3.29668,-344.756,-1142.83)">
            <path d="M449.634,559.491C449.467,559.567 449.132,559.841 448.919,560.115C447.731,561.515 449.177,563.525 450.974,562.977C451.872,562.703 452.222,562.231 452.222,561.241C452.222,560.526 452.161,560.358 451.75,559.947C451.248,559.445 450.258,559.232 449.634,559.491Z" style="fill-rule:nonzero;"/>
        </g>
    </g>
</svg>
